<?xml version="1.0" encoding="UTF-8" standalone="no"?>
<svg
   xmlns:dc="http://purl.org/dc/elements/1.1/"
   xmlns:cc="http://creativecommons.org/ns#"
   xmlns:rdf="http://www.w3.org/1999/02/22-rdf-syntax-ns#"
   xmlns:svg="http://www.w3.org/2000/svg"
   xmlns="http://www.w3.org/2000/svg"
   xmlns:sodipodi="http://sodipodi.sourceforge.net/DTD/sodipodi-0.dtd"
   xmlns:inkscape="http://www.inkscape.org/namespaces/inkscape"
   viewBox="0 0 19.999477 26.999659"
   version="1.1"
   x="0px"
   y="0px"
   id="svg6045"
   sodipodi:docname="bunny.svg"
   width="19.999477"
   height="26.999659"
   inkscape:version="0.92.3 (2405546, 2018-03-11)">
  <metadata
     id="metadata6051">
    <rdf:RDF>
      <cc:Work
         rdf:about="">
        <dc:format>image/svg+xml</dc:format>
        <dc:type
           rdf:resource="http://purl.org/dc/dcmitype/StillImage" />
        <dc:title></dc:title>
      </cc:Work>
    </rdf:RDF>
  </metadata>
  <defs
     id="defs6049" />
  <sodipodi:namedview
     pagecolor="#ffffff"
     bordercolor="#666666"
     borderopacity="1"
     objecttolerance="10"
     gridtolerance="10"
     guidetolerance="10"
     inkscape:pageopacity="0"
     inkscape:pageshadow="2"
     inkscape:window-width="1920"
     inkscape:window-height="1016"
     id="namedview6047"
     showgrid="false"
     fit-margin-top="0"
     fit-margin-left="0"
     fit-margin-right="0"
     fit-margin-bottom="0"
     inkscape:zoom="5.9"
     inkscape:cx="9.9997162"
     inkscape:cy="9.4991"
     inkscape:window-x="0"
     inkscape:window-y="27"
     inkscape:window-maximized="1"
     inkscape:current-layer="svg6045" />
  <g
     transform="translate(-6.0002838,-1022.8616)"
     id="g6039">
    <path
       style="color:#000000;font-style:normal;font-variant:normal;font-weight:normal;font-stretch:normal;font-size:medium;line-height:normal;font-family:sans-serif;text-indent:0;text-align:start;text-decoration:none;text-decoration-line:none;text-decoration-style:solid;text-decoration-color:#000000;letter-spacing:normal;word-spacing:normal;text-transform:none;writing-mode:lr-tb;direction:ltr;baseline-shift:baseline;text-anchor:start;white-space:normal;clip-rule:nonzero;display:inline;overflow:visible;visibility:visible;opacity:1;isolation:auto;mix-blend-mode:normal;color-interpolation:sRGB;color-interpolation-filters:linearRGB;solid-color:#000000;solid-opacity:1;fill:#000000;fill-opacity:1;fill-rule:evenodd;stroke:none;stroke-width:1px;stroke-linecap:round;stroke-linejoin:round;stroke-miterlimit:4;stroke-dasharray:none;stroke-dashoffset:0;stroke-opacity:1;color-rendering:auto;image-rendering:auto;shape-rendering:auto;text-rendering:auto;enable-background:accumulate"
       d="M 19.992188,1039.3613 A 0.50005,0.50005 0 0 0 19.5,1039.8691 v 0.4864 a 0.50005,0.50005 0 1 0 1,0 v -0.4864 a 0.50005,0.50005 0 0 0 -0.507812,-0.5078 z"
       id="path6017"
       inkscape:connector-curvature="0" />
    <path
       style="color:#000000;font-style:normal;font-variant:normal;font-weight:normal;font-stretch:normal;font-size:medium;line-height:normal;font-family:sans-serif;text-indent:0;text-align:start;text-decoration:none;text-decoration-line:none;text-decoration-style:solid;text-decoration-color:#000000;letter-spacing:normal;word-spacing:normal;text-transform:none;writing-mode:lr-tb;direction:ltr;baseline-shift:baseline;text-anchor:start;white-space:normal;clip-rule:nonzero;display:inline;overflow:visible;visibility:visible;opacity:1;isolation:auto;mix-blend-mode:normal;color-interpolation:sRGB;color-interpolation-filters:linearRGB;solid-color:#000000;solid-opacity:1;fill:#000000;fill-opacity:1;fill-rule:evenodd;stroke:none;stroke-width:1px;stroke-linecap:round;stroke-linejoin:round;stroke-miterlimit:4;stroke-dasharray:none;stroke-dashoffset:0;stroke-opacity:1;color-rendering:auto;image-rendering:auto;shape-rendering:auto;text-rendering:auto;enable-background:accumulate"
       d="M 12.992188,1039.3613 A 0.50005,0.50005 0 0 0 12.5,1039.8691 v 0.4864 a 0.50005,0.50005 0 1 0 1,0 v -0.4864 a 0.50005,0.50005 0 0 0 -0.507812,-0.5078 z"
       id="path6019"
       inkscape:connector-curvature="0" />
    <path
       style="color:#000000;font-style:normal;font-variant:normal;font-weight:normal;font-stretch:normal;font-size:medium;line-height:normal;font-family:sans-serif;text-indent:0;text-align:start;text-decoration:none;text-decoration-line:none;text-decoration-style:solid;text-decoration-color:#000000;letter-spacing:normal;word-spacing:normal;text-transform:none;writing-mode:lr-tb;direction:ltr;baseline-shift:baseline;text-anchor:start;white-space:normal;clip-rule:nonzero;display:inline;overflow:visible;visibility:visible;opacity:1;isolation:auto;mix-blend-mode:normal;color-interpolation:sRGB;color-interpolation-filters:linearRGB;solid-color:#000000;solid-opacity:1;fill:#000000;fill-opacity:1;fill-rule:nonzero;stroke:none;stroke-width:1;stroke-linecap:round;stroke-linejoin:round;stroke-miterlimit:4;stroke-dasharray:none;stroke-dashoffset:0;stroke-opacity:1;color-rendering:auto;image-rendering:auto;shape-rendering:auto;text-rendering:auto;enable-background:accumulate"
       d="m 16.5,1034.3613 c -2.315234,0 -4.386264,0.7402 -5.847656,2.1309 -1.4613928,1.3907 -2.286517,3.4292 -2.152344,5.8965 0.1283205,2.3596 0.9479071,4.2534 2.347656,5.5371 1.399749,1.2837 3.349691,1.9355 5.652344,1.9355 2.302653,0 4.252595,-0.6518 5.652344,-1.9355 1.399749,-1.2837 2.219335,-3.1775 2.347656,-5.5371 0.134173,-2.4673 -0.690951,-4.5058 -2.152344,-5.8965 -1.461392,-1.3907 -3.532422,-2.1309 -5.847656,-2.1309 z m 0,1 c 2.103047,0 3.910438,0.6681 5.158203,1.8555 1.247765,1.1874 1.962535,2.8989 1.841797,5.1191 -0.117538,2.1614 -0.839222,3.7675 -2.023438,4.8536 -1.184215,1.086 -2.860934,1.6718 -4.976562,1.6718 -2.115628,0 -3.792347,-0.5858 -4.976562,-1.6718 -1.184216,-1.0861 -1.9058997,-2.6922 -2.023438,-4.8536 -0.1207382,-2.2202 0.594032,-3.9317 1.841797,-5.1191 1.247765,-1.1874 3.055156,-1.8555 5.158203,-1.8555 z"
       id="path6021"
       inkscape:connector-curvature="0" />
    <path
       style="color:#000000;font-style:normal;font-variant:normal;font-weight:normal;font-stretch:normal;font-size:medium;line-height:normal;font-family:sans-serif;text-indent:0;text-align:start;text-decoration:none;text-decoration-line:none;text-decoration-style:solid;text-decoration-color:#000000;letter-spacing:normal;word-spacing:normal;text-transform:none;writing-mode:lr-tb;direction:ltr;baseline-shift:baseline;text-anchor:start;white-space:normal;clip-rule:nonzero;display:inline;overflow:visible;visibility:visible;opacity:1;isolation:auto;mix-blend-mode:normal;color-interpolation:sRGB;color-interpolation-filters:linearRGB;solid-color:#000000;solid-opacity:1;fill:#000000;fill-opacity:1;fill-rule:evenodd;stroke:none;stroke-width:1px;stroke-linecap:round;stroke-linejoin:round;stroke-miterlimit:4;stroke-dasharray:none;stroke-dashoffset:0;stroke-opacity:1;color-rendering:auto;image-rendering:auto;shape-rendering:auto;text-rendering:auto;enable-background:accumulate"
       d="m 15,1041.3613 a 0.50005,0.50005 0 0 0 -0.400391,0.8008 l 1.5,2 a 0.50005,0.50005 0 0 0 0.800782,0 l 1.5,-2 A 0.50005,0.50005 0 0 0 18,1041.3613 Z m 1,1 h 1 l -0.5,0.668 z"
       id="path6023"
       inkscape:connector-curvature="0" />
    <path
       style="color:#000000;font-style:normal;font-variant:normal;font-weight:normal;font-stretch:normal;font-size:medium;line-height:normal;font-family:sans-serif;text-indent:0;text-align:start;text-decoration:none;text-decoration-line:none;text-decoration-style:solid;text-decoration-color:#000000;letter-spacing:normal;word-spacing:normal;text-transform:none;writing-mode:lr-tb;direction:ltr;baseline-shift:baseline;text-anchor:start;white-space:normal;clip-rule:nonzero;display:inline;overflow:visible;visibility:visible;opacity:1;isolation:auto;mix-blend-mode:normal;color-interpolation:sRGB;color-interpolation-filters:linearRGB;solid-color:#000000;solid-opacity:1;fill:#000000;fill-opacity:1;fill-rule:evenodd;stroke:none;stroke-width:1px;stroke-linecap:butt;stroke-linejoin:miter;stroke-miterlimit:4;stroke-dasharray:none;stroke-dashoffset:0;stroke-opacity:1;color-rendering:auto;image-rendering:auto;shape-rendering:auto;text-rendering:auto;enable-background:accumulate"
       d="m 16,1043.8613 v 1.5 h 1 v -1.5 z"
       id="path6025"
       inkscape:connector-curvature="0" />
    <path
       style="color:#000000;font-style:normal;font-variant:normal;font-weight:normal;font-stretch:normal;font-size:medium;line-height:normal;font-family:sans-serif;text-indent:0;text-align:start;text-decoration:none;text-decoration-line:none;text-decoration-style:solid;text-decoration-color:#000000;letter-spacing:normal;word-spacing:normal;text-transform:none;writing-mode:lr-tb;direction:ltr;baseline-shift:baseline;text-anchor:start;white-space:normal;clip-rule:nonzero;display:inline;overflow:visible;visibility:visible;opacity:1;isolation:auto;mix-blend-mode:normal;color-interpolation:sRGB;color-interpolation-filters:linearRGB;solid-color:#000000;solid-opacity:1;fill:#000000;fill-opacity:1;fill-rule:nonzero;stroke:none;stroke-width:1;stroke-linecap:round;stroke-linejoin:round;stroke-miterlimit:4;stroke-dasharray:none;stroke-dashoffset:0;stroke-opacity:1;color-rendering:auto;image-rendering:auto;shape-rendering:auto;text-rendering:auto;enable-background:accumulate"
       d="m 18.277344,1044.8633 a 0.50005,0.50005 0 0 1 0.398437,0.7617 c -0.268597,0.4488 -0.75233,0.7236 -1.27539,0.7363 -0.523066,0.013 -1.021356,-0.2373 -1.3125,-0.6718 a 0.50054732,0.50054732 0 1 1 0.832031,-0.5567 c 0.09602,0.1433 0.267374,0.2331 0.455078,0.2285 0.187702,0 0.355294,-0.1028 0.443359,-0.25 a 0.50005,0.50005 0 0 1 0.458985,-0.248 z"
       id="path6027"
       inkscape:connector-curvature="0" />
    <path
       style="color:#000000;font-style:normal;font-variant:normal;font-weight:normal;font-stretch:normal;font-size:medium;line-height:normal;font-family:sans-serif;text-indent:0;text-align:start;text-decoration:none;text-decoration-line:none;text-decoration-style:solid;text-decoration-color:#000000;letter-spacing:normal;word-spacing:normal;text-transform:none;writing-mode:lr-tb;direction:ltr;baseline-shift:baseline;text-anchor:start;white-space:normal;clip-rule:nonzero;display:inline;overflow:visible;visibility:visible;opacity:1;isolation:auto;mix-blend-mode:normal;color-interpolation:sRGB;color-interpolation-filters:linearRGB;solid-color:#000000;solid-opacity:1;fill:#000000;fill-opacity:1;fill-rule:nonzero;stroke:none;stroke-width:1;stroke-linecap:round;stroke-linejoin:round;stroke-miterlimit:4;stroke-dasharray:none;stroke-dashoffset:0;stroke-opacity:1;color-rendering:auto;image-rendering:auto;shape-rendering:auto;text-rendering:auto;enable-background:accumulate"
       d="m 14.722656,1044.8633 a 0.50005,0.50005 0 0 0 -0.398437,0.7617 c 0.268598,0.4488 0.75233,0.7236 1.27539,0.7363 0.523066,0.013 1.021356,-0.2373 1.3125,-0.6718 a 0.50054732,0.50054732 0 1 0 -0.832031,-0.5567 c -0.09602,0.1433 -0.267374,0.2331 -0.455078,0.2285 -0.187702,0 -0.353341,-0.1028 -0.441406,-0.25 a 0.50005,0.50005 0 0 0 -0.460938,-0.248 z"
       id="path6029"
       inkscape:connector-curvature="0" />
    <path
       style="color:#000000;font-style:normal;font-variant:normal;font-weight:normal;font-stretch:normal;font-size:medium;line-height:normal;font-family:sans-serif;text-indent:0;text-align:start;text-decoration:none;text-decoration-line:none;text-decoration-style:solid;text-decoration-color:#000000;letter-spacing:normal;word-spacing:normal;text-transform:none;writing-mode:lr-tb;direction:ltr;baseline-shift:baseline;text-anchor:start;white-space:normal;clip-rule:nonzero;display:inline;overflow:visible;visibility:visible;opacity:1;isolation:auto;mix-blend-mode:normal;color-interpolation:sRGB;color-interpolation-filters:linearRGB;solid-color:#000000;solid-opacity:1;fill:#000000;fill-opacity:1;fill-rule:evenodd;stroke:none;stroke-width:0.99999994px;stroke-linecap:butt;stroke-linejoin:miter;stroke-miterlimit:4;stroke-dasharray:none;stroke-dashoffset:0;stroke-opacity:1;color-rendering:auto;image-rendering:auto;shape-rendering:auto;text-rendering:auto;enable-background:accumulate"
       d="m 23.5,1022.8965 c -0.480269,0.083 -0.933583,0.3104 -1.291016,0.6738 l -0.898437,0.9024 c -1.475887,1.48 -2.473427,3.3685 -2.859375,5.4199 l -0.949219,5.0547 0.982422,0.1855 0.951172,-5.0566 c 0.348781,-1.8538 1.247634,-3.5603 2.582031,-4.8985 l 0.900391,-0.9023 h 0.002 c 0.415096,-0.423 1.051527,-0.532 1.585937,-0.2734 0.325393,0.1627 0.518054,0.5011 0.490235,0.8613 l -0.205078,2.6621 c -0.140262,1.8173 -0.83578,3.548 -1.994141,4.959 l -2.666016,3.2461 0.773438,0.6348 2.664062,-3.2461 c 1.288183,-1.5691 2.062702,-3.4958 2.21875,-5.5176 l 0.207032,-2.6621 c 0.05907,-0.7649 -0.355705,-1.4921 -1.042969,-1.834 h -0.0039 c -0.459302,-0.2239 -0.966128,-0.2878 -1.447266,-0.2051 z m 1.447266,0.2051 -0.101563,-0.051 h -0.117187 z"
       id="path6031"
       inkscape:connector-curvature="0" />
    <path
       style="color:#000000;font-style:normal;font-variant:normal;font-weight:normal;font-stretch:normal;font-size:medium;line-height:normal;font-family:sans-serif;text-indent:0;text-align:start;text-decoration:none;text-decoration-line:none;text-decoration-style:solid;text-decoration-color:#000000;letter-spacing:normal;word-spacing:normal;text-transform:none;writing-mode:lr-tb;direction:ltr;baseline-shift:baseline;text-anchor:start;white-space:normal;clip-rule:nonzero;display:inline;overflow:visible;visibility:visible;opacity:1;isolation:auto;mix-blend-mode:normal;color-interpolation:sRGB;color-interpolation-filters:linearRGB;solid-color:#000000;solid-opacity:1;fill:#000000;fill-opacity:1;fill-rule:evenodd;stroke:none;stroke-width:0.99999994px;stroke-linecap:round;stroke-linejoin:round;stroke-miterlimit:4;stroke-dasharray:none;stroke-dashoffset:0;stroke-opacity:1;color-rendering:auto;image-rendering:auto;shape-rendering:auto;text-rendering:auto;enable-background:accumulate"
       d="m 22.099609,1026.4961 c -0.25751,0.074 -0.473661,0.2197 -0.613281,0.3867 l -0.24414,0.293 a 0.50004997,0.50004997 0 1 0 0.767578,0.6406 l 0.24414,-0.291 c 0.05117,-0.061 0.119688,-0.114 0.310547,-0.053 0.08562,0.054 0.141385,0.1414 0.126953,0.2421 l -0.08008,0.5704 c -0.218948,1.5274 -0.74243,2.9951 -1.539062,4.3183 a 0.50004997,0.50004997 0 0 0 -0.002,0 l -1.5,2.5 a 0.50057768,0.50057768 0 0 0 0.859376,0.5136 l 1.5,-2.5 h -0.002 c 0.865476,-1.4375 1.433955,-3.0316 1.671875,-4.6914 l 0.08203,-0.5703 c 0.0764,-0.5334 -0.201665,-1.0604 -0.683594,-1.3008 a 0.50004997,0.50004997 0 0 0 -0.03906,-0.017 c -0.30329,-0.1198 -0.601865,-0.1171 -0.859375,-0.043 z"
       id="path6033"
       inkscape:connector-curvature="0" />
    <path
       style="color:#000000;font-style:normal;font-variant:normal;font-weight:normal;font-stretch:normal;font-size:medium;line-height:normal;font-family:sans-serif;text-indent:0;text-align:start;text-decoration:none;text-decoration-line:none;text-decoration-style:solid;text-decoration-color:#000000;letter-spacing:normal;word-spacing:normal;text-transform:none;writing-mode:lr-tb;direction:ltr;baseline-shift:baseline;text-anchor:start;white-space:normal;clip-rule:nonzero;display:inline;overflow:visible;visibility:visible;opacity:1;isolation:auto;mix-blend-mode:normal;color-interpolation:sRGB;color-interpolation-filters:linearRGB;solid-color:#000000;solid-opacity:1;fill:#000000;fill-opacity:1;fill-rule:evenodd;stroke:none;stroke-width:0.99999994px;stroke-linecap:butt;stroke-linejoin:miter;stroke-miterlimit:4;stroke-dasharray:none;stroke-dashoffset:0;stroke-opacity:1;color-rendering:auto;image-rendering:auto;shape-rendering:auto;text-rendering:auto;enable-background:accumulate"
       d="m 8.5,1022.8965 c -0.4811383,-0.083 -0.9879644,-0.019 -1.4472656,0.2051 h -0.00391 c -0.6872643,0.3419 -1.1020347,1.0691 -1.0429687,1.834 l 0.2070312,2.6621 c 0.1560481,2.0218 0.9305672,3.9485 2.21875,5.5176 l 2.6640621,3.2461 0.773438,-0.6348 -2.6660157,-3.2461 c -1.1583606,-1.411 -1.8538793,-3.1417 -1.9941406,-4.959 l -0.2050782,-2.6621 c -0.02782,-0.3602 0.1648418,-0.6986 0.4902344,-0.8613 0.5344101,-0.2586 1.1708414,-0.1496 1.5859375,0.2734 h 0.00195 l 0.9003907,0.9023 c 1.3343969,1.3382 2.2332499,3.0447 2.5820309,4.8985 l 0.951172,5.0566 0.982422,-0.1855 -0.949219,-5.0547 c -0.385948,-2.0514 -1.383488,-3.9399 -2.859375,-5.4199 l -0.896484,-0.9004 C 9.4352429,1023.2077 8.9811383,1022.9792 8.5,1022.8965 Z m -1.4472656,0.2051 0.21875,-0.051 H 7.1542969 Z"
       id="path6035"
       inkscape:connector-curvature="0" />
    <path
       style="color:#000000;font-style:normal;font-variant:normal;font-weight:normal;font-stretch:normal;font-size:medium;line-height:normal;font-family:sans-serif;text-indent:0;text-align:start;text-decoration:none;text-decoration-line:none;text-decoration-style:solid;text-decoration-color:#000000;letter-spacing:normal;word-spacing:normal;text-transform:none;writing-mode:lr-tb;direction:ltr;baseline-shift:baseline;text-anchor:start;white-space:normal;clip-rule:nonzero;display:inline;overflow:visible;visibility:visible;opacity:1;isolation:auto;mix-blend-mode:normal;color-interpolation:sRGB;color-interpolation-filters:linearRGB;solid-color:#000000;solid-opacity:1;fill:#000000;fill-opacity:1;fill-rule:evenodd;stroke:none;stroke-width:0.99999994px;stroke-linecap:round;stroke-linejoin:round;stroke-miterlimit:4;stroke-dasharray:none;stroke-dashoffset:0;stroke-opacity:1;color-rendering:auto;image-rendering:auto;shape-rendering:auto;text-rendering:auto;enable-background:accumulate"
       d="m 9.9003906,1026.4961 c -0.2575099,-0.074 -0.5560851,-0.077 -0.859375,0.043 a 0.50004997,0.50004997 0 0 0 -0.039063,0.017 c -0.4819288,0.2404 -0.759996,0.7674 -0.6835937,1.3008 l 0.082031,0.5703 c 0.2379194,1.6598 0.8063999,3.2539 1.6718751,4.6914 h -0.002 l 1.5,2.5 a 0.50057768,0.50057768 0 0 0 0.859376,-0.5136 l -1.5,-2.5 a 0.50004997,0.50004997 0 0 0 -0.002,0 c -0.796632,-1.3232 -1.3201146,-2.7909 -1.5390618,-4.3183 l -0.080078,-0.5704 c -0.014432,-0.1007 0.041334,-0.1881 0.1269531,-0.2421 0.1908586,-0.061 0.2593751,-0.01 0.3105469,0.053 l 0.2441406,0.291 a 0.50004997,0.50004997 0 1 0 0.7675772,-0.6406 l -0.24414,-0.293 c -0.13962,-0.167 -0.355771,-0.3126 -0.613281,-0.3867 z"
       id="path6037"
       inkscape:connector-curvature="0" />
  </g>
</svg>
