<?xml version="1.0" encoding="UTF-8" standalone="no"?>
<svg
   xmlns:dc="http://purl.org/dc/elements/1.1/"
   xmlns:cc="http://creativecommons.org/ns#"
   xmlns:rdf="http://www.w3.org/1999/02/22-rdf-syntax-ns#"
   xmlns:svg="http://www.w3.org/2000/svg"
   xmlns="http://www.w3.org/2000/svg"
   xmlns:sodipodi="http://sodipodi.sourceforge.net/DTD/sodipodi-0.dtd"
   xmlns:inkscape="http://www.inkscape.org/namespaces/inkscape"
   version="1.1"
   x="0px"
   y="0px"
   viewBox="0 0 35.986877 49"
   enable-background="new 0 0 100 100"
   xml:space="preserve"
   id="svg5350"
   sodipodi:docname="turtle_gray.svg"
   width="35.986877"
   height="49"
   inkscape:version="0.92.3 (2405546, 2018-03-11)"><metadata
     id="metadata5356"><rdf:RDF><cc:Work
         rdf:about=""><dc:format>image/svg+xml</dc:format><dc:type
           rdf:resource="http://purl.org/dc/dcmitype/StillImage" /><dc:title></dc:title></cc:Work></rdf:RDF></metadata><defs
     id="defs5354" /><sodipodi:namedview
     pagecolor="#ffffff"
     bordercolor="#666666"
     borderopacity="1"
     objecttolerance="10"
     gridtolerance="10"
     guidetolerance="10"
     inkscape:pageopacity="0"
     inkscape:pageshadow="2"
     inkscape:window-width="1920"
     inkscape:window-height="1016"
     id="namedview5352"
     showgrid="false"
     fit-margin-top="0"
     fit-margin-left="0"
     fit-margin-right="0"
     fit-margin-bottom="0"
     inkscape:zoom="3.776"
     inkscape:cx="12.120969"
     inkscape:cy="-10.624046"
     inkscape:window-x="0"
     inkscape:window-y="27"
     inkscape:window-maximized="1"
     inkscape:current-layer="svg5350" /><path
     d="m 31.343251,36.396 c 0.423,-1.761 0.65,-3.571 0.65,-5.396 0,-1.822 -0.226,-3.631 -0.65,-5.396 l 3.63,-3.631 c 1.352,-1.364 1.352,-3.583 -0.006,-4.953 -1.363,-1.352 -3.583,-1.352 -4.95,0.003 l -1.661,1.917 c -0.564,-0.805 -1.164,-1.565 -1.827,-2.221 -1.252,-1.243 -2.675,-2.198 -4.173,-2.826 1.552,-1.615 2.637,-3.918 2.637,-5.893 0,-3.146 -3.006,-8 -7,-8 -3.878,0 -7,4.377 -7,8 0,2.049 1.049,4.327 2.591,5.917 -1.489,0.633 -2.893,1.579 -4.1239998,2.802 -0.579,0.572 -1.108,1.226 -1.613,1.912 l -1.88,-1.61 c -1.364,-1.354 -3.583,-1.352 -4.953,0.006 -1.35199995,1.364 -1.35199995,3.583 0.003,4.95 l 3.627,3.628 c -0.424,1.76 -0.651,3.57 -0.651,5.395 0,1.822 0.226,3.631 0.65,5.396 l -3.63,3.631 c -1.35199995,1.364 -1.35199995,3.583 0.006,4.953 0.682,0.676 1.577,1.014 2.473,1.014 0.896,0 1.794,-0.339 2.478,-1.017 l 1.839,-1.653 c 0.503,0.69 1.036,1.35 1.63,1.936 2.4569998,2.446 5.4159998,3.74 8.5539998,3.74 3.138,0 6.097,-1.294 8.552,-3.738 0.614,-0.607 1.163,-1.291 1.68,-2.007 l 1.795,1.725 c 0.682,0.676 1.576,1.014 2.472,1.014 0.897,0 1.796,-0.34 2.481,-1.02 1.352,-1.364 1.352,-3.583 -0.003,-4.95 z m -4.081,-15.533 c 0.124,0.199 0.24,0.42 0.359,0.633 0.224,0.403 0.438,0.829 0.641,1.282 0.047,0.105 0.101,0.206 0.146,0.313 0.321,0.741 0.611,1.573 0.862,2.477 l 0.075,0.271 c 0.344,1.359 0.549,2.754 0.615,4.162 h -4.349 l -2.499,-4.997 2.941,-5.813 c 0.428,0.52 0.838,1.071 1.209,1.672 z m -3.387,10.137 -2.5,5 h -6.764 l -2.5,-5 2.5,-5 h 6.764 z m -8.141,-15.703 0.008,0.003 0.125,-0.033 c 0.144,-0.037 0.295,-0.068 0.468,-0.106 0.011,-0.002 0.021,-0.004 0.031,-0.006 l 0.187,-0.029 c 0.11,-0.02 0.223,-0.038 0.391,-0.057 0.028,-0.004 0.055,-0.005 0.082,-0.009 0.136,-0.019 0.274,-0.034 0.432,-0.042 0.378,-0.019 0.757,-0.015 1.059,-0.001 0.357,0.027 0.713,0.073 1.069,0.138 l 0.021,0.003 c 0.158,0.025 0.316,0.059 0.474,0.1 l 0.125,0.033 0.01,-0.004 c 1.555,0.387 3.044,1.213 4.367,2.383 l -3.205,6.33 h -6.77 l -3.204,-6.332 c 1.31,-1.161 2.754,-1.967 4.33,-2.371 z m -9.0919998,10.539 0.074,-0.269 c 0.246,-0.888 0.532,-1.705 0.85,-2.442 0.007,-0.016 0.013,-0.033 0.02,-0.049 0.273,-0.641 0.567,-1.216 0.882,-1.764 0.07,-0.122 0.136,-0.25 0.209,-0.369 l 0.149,-0.226 c 0.344,-0.545 0.715,-1.051 1.106,-1.528 l 2.9409998,5.813 -2.498,4.998 H 6.0252512 c 0.068,-1.411 0.273,-2.808 0.617,-4.164 z m 2.149,15.396 -0.115,-0.177 c -0.08,-0.13 -0.151,-0.271 -0.229,-0.404 -0.3,-0.526 -0.581,-1.079 -0.846,-1.694 -0.007,-0.017 -0.016,-0.031 -0.022,-0.048 -0.32,-0.741 -0.611,-1.573 -0.862,-2.477 l -0.075,-0.271 c -0.344,-1.358 -0.549,-2.753 -0.617,-4.161 h 4.3499998 l 2.498,4.996 -2.9569998,5.799 c -0.403,-0.491 -0.783,-1.008 -1.125,-1.563 z M 17.993251,47 c -2.38,0 -4.65,-0.928 -6.613,-2.674 l 3.225,-6.326 h 6.775 l 3.226,6.327 c -1.961,1.744 -4.232,2.673 -6.613,2.673 z m 11.352,-10.836 -0.075,0.269 c -0.247,0.888 -0.532,1.705 -0.85,2.442 -0.007,0.016 -0.013,0.033 -0.02,0.049 -0.273,0.641 -0.567,1.216 -0.882,1.764 -0.072,0.125 -0.139,0.256 -0.214,0.378 l -0.082,0.126 c -0.348,0.569 -0.738,1.1 -1.152,1.604 l -2.957,-5.799 2.498,-4.997 h 4.349 c -0.067,1.411 -0.272,2.807 -0.615,4.164 z"
     id="path5344"
     style="fill:#eaeaea;fill-opacity:1"
     inkscape:connector-curvature="0" /></svg>